<?xml version="1.0" encoding="UTF-8" standalone="no"?>
<!-- Created with Inkscape (http://www.inkscape.org/) -->

<svg
   xmlns:dc="http://purl.org/dc/elements/1.1/"
   xmlns:cc="http://creativecommons.org/ns#"
   xmlns:rdf="http://www.w3.org/1999/02/22-rdf-syntax-ns#"
   xmlns:svg="http://www.w3.org/2000/svg"
   xmlns="http://www.w3.org/2000/svg"
   xmlns:inkscape="http://www.inkscape.org/namespaces/inkscape"
   version="1.1"
   width="453.54376"
   height="340.1575"
   id="svg2"
   xml:space="preserve"><metadata
     id="metadata8"><rdf:RDF><cc:Work
         rdf:about=""><dc:format>image/svg+xml</dc:format><dc:type
           rdf:resource="http://purl.org/dc/dcmitype/StillImage" /></cc:Work></rdf:RDF></metadata><defs
     id="defs6" /><g
     transform="matrix(1.25,0,0,-1.25,0,340.1575)"
     id="g10"><g
       id="g12"><path
         d="m 0,0 362.835,0 0,272.126 L 0,272.126 0,0 z"
         inkscape:connector-curvature="0"
         id="path14"
         style="fill:#ffffff;fill-opacity:1;fill-rule:nonzero;stroke:none" /></g><g
       transform="translate(0,269.137)"
       id="g16"><path
         d="m 0,0 362.835,0 0,2.989 L 0,2.989 0,0 z"
         inkscape:connector-curvature="0"
         id="path18"
         style="fill:#9999d9;fill-opacity:1;fill-rule:nonzero;stroke:none" /></g><text
       transform="matrix(1,0,0,-1,8.504,262.491)"
       id="text20"><tspan
         x="0 4.2859392 5.9471145 9.5581827 11.702348 15.313416 18.924484 21.314926 24.925995 28.537062"
         y="0"
         id="tspan22"
         style="font-size:5.9776001px;font-variant:normal;font-weight:normal;writing-mode:lr-tb;fill:#000000;fill-opacity:1;fill-rule:nonzero;stroke:none;font-family:SFSS0600;-inkscape-font-specification:SFSS0600">Einführung</tspan></text>
<g
       transform="translate(0,237.239)"
       id="g24"><path
         d="m 0,0 362.835,0 0,2.989 L 0,2.989 0,0 z"
         inkscape:connector-curvature="0"
         id="path26"
         style="fill:#9999d9;fill-opacity:1;fill-rule:nonzero;stroke:none" /></g><text
       transform="matrix(1,0,0,-1,128.06,168.692)"
       id="text28"><tspan
         x="0 11.961862 18.528118 24.824665 33.772388 39.848003 43.10746 46.366917 50.923271 60.035976 63.295433 69.371048 72.630508 78.706123 85.763016 92.819916 99.876808"
         y="0"
         id="tspan30"
         style="font-size:14.34619999px;font-variant:normal;font-weight:normal;writing-mode:lr-tb;fill:#3333b3;fill-opacity:1;fill-rule:nonzero;stroke:none;font-family:SFSS1440;-inkscape-font-specification:SFSS1440">Maxwell-Gleichung</tspan></text>
<text
       transform="matrix(1,0,0,-1,130.862,156.737)"
       id="text32"><tspan
         x="0 6.3611202 11.341424 19.814615 25.207371 29.714451 33.117676 37.903709 43.049393 47.556473 55.476738 59.806484 68.269714 74.218384 76.59745 81.743134 85.560799 89.157303 93.583687 95.962753"
         y="0"
         id="tspan34"
         style="font-size:9.96259975px;font-variant:normal;font-weight:normal;writing-mode:lr-tb;fill:#3333b3;fill-opacity:1;fill-rule:nonzero;stroke:none;font-family:SFSS1000;-inkscape-font-specification:SFSS1000">VonFaradayzuEinstein</tspan></text>
<text
       transform="matrix(1,0,0,-1,161.215,119.063)"
       id="text36"><tspan
         x="0 7.1869149 13.808739 21.209473 23.768747 27.457113 30.016388 34.833847"
         y="0"
         id="tspan38"
         style="font-size:10.90909958px;font-variant:normal;font-weight:normal;writing-mode:lr-tb;fill:#000000;fill-opacity:1;fill-rule:nonzero;stroke:none;font-family:SFSS1095;-inkscape-font-specification:SFSS1095">Y.Ulrich</tspan><tspan
         x="-9.7620001 -4.3423591 1.0772817 7.6991053 17.119114 22.312935 28.483122 33.902763 39.322403 44.742046"
         y="41.448002"
         id="tspan40"
         style="font-size:10.90909958px;font-variant:normal;font-weight:normal;writing-mode:lr-tb;fill:#000000;fill-opacity:1;fill-rule:nonzero;stroke:none;font-family:SFSS1095;-inkscape-font-specification:SFSS1095">24.Mai2013</tspan></text>
<text
       transform="matrix(1,0,0,-1,28.346,32.774)"
       id="text42"><tspan
         x="0 6.6400728 11.785756 16.571789 23.607376 30.385929 32.764999 37.191383 40.234955 44.052624 47.649124 55.293427 60.43911 65.584793 73.948395 79.341148 82.744377 87.89006 92.316437 97.46212 101.05862 106.20431 110.71139 114.11461 117.93227 121.52878 125.95516 131.9397 137.08537 141.87141 148.907 154.05267 156.43175 164.07605 170.43916 175.58485 180.17761 183.99527 186.37434 194.46198 198.27965 202.70604 205.0851 211.89952 218.95503 223.38142 230.18787 233.78436 238.76466 247.1183 251.54469 256.69037 260.28687 265.43256 269.8689 274.29529 279.16501 285.96945 291.11514 295.90118 299.49768"
         y="0"
         id="tspan44"
         style="font-size:9.96259975px;font-variant:normal;font-weight:normal;writing-mode:lr-tb;fill:#000000;fill-opacity:1;fill-rule:nonzero;stroke:none;font-family:SFSS1000;-inkscape-font-specification:SFSS1000">»dasTiefsteundFruchtbarste,dasdiePhysikseitNewtonentdeckthat«</tspan></text>
</g></svg>